<svg xmlns="http://www.w3.org/2000/svg" id="Logo_-_selected" data-name="Logo - selected" viewBox="0 0 1737.79 364.59"><defs><style>.cls-2{fill:#150f93}</style></defs><rect width="191.31" height="191.31" y="164.14" rx="12.69" ry="12.69" style="fill:#00bdff"/><rect width="191.31" height="191.31" x="191.31" y="36.17" class="cls-2" rx="12.75" ry="12.75" transform="rotate(45 286.963 131.834)"/><rect width="191.31" height="191.31" x="382.62" y="164.14" rx="12.47" ry="12.47" style="fill:#f74fcb"/><path d="M654.1 113.44c-1.44 0-2.57-.44-3.4-1.3-.83-.87-1.25-2.06-1.25-3.57V40.76h-25.51c-1.36 0-2.42-.38-3.17-1.13-.76-.75-1.13-1.74-1.13-2.95 0-1.28.38-2.27 1.13-2.95s1.81-1.02 3.17-1.02h60.43c1.36 0 2.42.34 3.17 1.02s1.13 1.66 1.13 2.95-.38 2.29-1.13 3c-.76.72-1.81 1.08-3.17 1.08h-25.51v67.8c0 1.51-.4 2.7-1.19 3.57s-1.98 1.3-3.57 1.3ZM715.67 113.44c-1.51 0-2.65-.42-3.4-1.25-.76-.83-1.13-2-1.13-3.52V36.56c0-1.51.38-2.66 1.13-3.46.75-.79 1.89-1.19 3.4-1.19s2.57.4 3.4 1.19 1.25 1.95 1.25 3.46v33.22h-1.47c1.59-4.38 4.18-7.69 7.77-9.92s7.73-3.34 12.42-3.34c4.38 0 8.03.79 10.94 2.38s5.08 3.99 6.52 7.2c1.43 3.21 2.15 7.28 2.15 12.19v30.39c0 1.51-.4 2.68-1.19 3.52-.79.83-1.91 1.25-3.34 1.25-1.51 0-2.67-.42-3.46-1.25s-1.19-2-1.19-3.52V78.86q0-7.71-3-11.28c-2-2.38-5.2-3.57-9.58-3.57-5.06 0-9.09 1.57-12.08 4.71s-4.48 7.31-4.48 12.53v27.44c0 3.17-1.55 4.76-4.65 4.76ZM811.71 113.67c-5.82 0-10.83-1.15-15.02-3.46-4.2-2.31-7.45-5.57-9.75-9.81-2.31-4.23-3.46-9.3-3.46-15.19s1.13-10.75 3.4-15.02 5.39-7.61 9.35-10.04c3.97-2.42 8.56-3.63 13.78-3.63 3.7 0 7.03.62 9.98 1.87s5.46 3.04 7.54 5.39c2.08 2.34 3.67 5.18 4.76 8.5 1.09 3.33 1.64 7.07 1.64 11.22q0 1.815-1.02 2.67c-.68.57-1.66.85-2.95.85H790.5v-6.01h37.3l-1.81 1.47c0-4.08-.61-7.54-1.81-10.38-1.21-2.83-2.97-5.01-5.27-6.52-2.31-1.51-5.2-2.27-8.67-2.27q-5.775 0-9.81 2.67c-2.68 1.78-4.71 4.23-6.07 7.37s-2.04 6.79-2.04 10.94v.68c0 6.96 1.68 12.25 5.05 15.87 3.36 3.63 8.14 5.44 14.34 5.44q3.855 0 7.65-1.02c2.53-.68 5.01-1.81 7.43-3.4 1.06-.68 2.02-1 2.89-.96s1.57.3 2.1.79.89 1.1 1.08 1.81c.19.72.11 1.49-.23 2.33-.34.83-1 1.55-1.98 2.15-2.49 1.81-5.44 3.21-8.84 4.2s-6.77 1.47-10.09 1.47Zm2.04-64.07c-.53.76-1.17 1.19-1.93 1.3s-1.47 0-2.15-.34a3.04 3.04 0 0 1-1.47-1.53c-.3-.68-.23-1.47.23-2.38l9.52-18.48q.795-1.59 2.04-2.04c.83-.3 1.68-.36 2.55-.17s1.6.59 2.21 1.19c.6.61.96 1.32 1.08 2.15.11.83-.13 1.7-.74 2.61zM863.18 113.44c-1.51 0-2.67-.42-3.46-1.25s-1.19-2-1.19-3.52V61.39c0-1.51.38-2.67 1.13-3.46s1.85-1.19 3.29-1.19 2.55.4 3.34 1.19 1.19 1.95 1.19 3.46v9.18h-1.13c1.21-4.46 3.51-7.9 6.92-10.32 3.4-2.42 7.6-3.7 12.59-3.86 1.13-.07 2.04.17 2.72.74s1.06 1.53 1.13 2.89c.07 1.29-.23 2.31-.91 3.06-.68.76-1.74 1.21-3.17 1.36l-1.81.23c-5.14.45-9.09 2.1-11.85 4.93s-4.14 6.71-4.14 11.62v27.44c0 1.51-.4 2.68-1.19 3.52-.79.83-1.95 1.25-3.46 1.25ZM927.25 113.67c-3.78 0-7.16-.74-10.15-2.21s-5.35-3.5-7.09-6.07-2.61-5.44-2.61-8.62c0-4.08 1.04-7.29 3.12-9.64 2.08-2.34 5.52-4.01 10.32-4.99s11.36-1.47 19.67-1.47h5.1v6.01h-4.99c-6.12 0-10.94.28-14.46.85s-5.97 1.53-7.37 2.89-2.1 3.29-2.1 5.78c0 3.1 1.08 5.63 3.23 7.6s5.08 2.95 8.79 2.95c3.02 0 5.69-.72 7.99-2.15 2.31-1.43 4.12-3.4 5.44-5.9s1.98-5.37 1.98-8.62V77.15c0-4.69-.95-8.07-2.83-10.15q-2.835-3.12-9.3-3.12c-2.65 0-5.29.34-7.94 1.02s-5.44 1.78-8.39 3.29c-1.06.53-1.97.7-2.72.51-.76-.19-1.36-.58-1.81-1.19-.45-.6-.72-1.3-.79-2.1-.08-.79.09-1.57.51-2.32s1.08-1.36 1.98-1.81c3.33-1.66 6.61-2.87 9.86-3.63 3.25-.75 6.35-1.13 9.3-1.13 4.76 0 8.69.78 11.79 2.32 3.1 1.55 5.4 3.89 6.92 7.03 1.51 3.14 2.27 7.16 2.27 12.08v30.73c0 1.51-.36 2.68-1.08 3.52-.72.83-1.76 1.25-3.12 1.25-1.44 0-2.53-.42-3.29-1.25s-1.13-2-1.13-3.52v-8.84h1.02c-.61 2.87-1.76 5.33-3.46 7.37s-3.8 3.63-6.29 4.76-5.29 1.7-8.39 1.7ZM985.87 133.85c-1.51 0-2.65-.4-3.4-1.19-.76-.79-1.13-1.95-1.13-3.46V61.4c0-1.51.38-2.67 1.13-3.46s1.85-1.19 3.29-1.19c1.51 0 2.67.4 3.46 1.19s1.19 1.95 1.19 3.46v10.77l-1.25-1.59q1.815-6.465 7.2-10.26c3.59-2.53 7.88-3.8 12.87-3.8s9.2 1.15 12.87 3.46 6.5 5.59 8.5 9.87c2 4.27 3 9.35 3 15.25s-1 10.87-3 15.14-4.82 7.58-8.45 9.92q-5.445 3.51-12.93 3.51c-7.485 0-9.26-1.26-12.81-3.8-3.55-2.53-5.97-5.91-7.26-10.15h1.36v29.48c0 1.51-.42 2.66-1.25 3.46-.83.79-1.97 1.19-3.4 1.19Zm21.43-27.55c3.48 0 6.48-.83 9.01-2.49s4.5-4.08 5.9-7.26c1.4-3.17 2.1-6.99 2.1-11.45 0-6.88-1.53-12.13-4.59-15.76s-7.2-5.44-12.42-5.44c-3.4 0-6.39.81-8.96 2.44s-4.55 4.01-5.95 7.14c-1.4 3.14-2.1 7.01-2.1 11.62 0 6.8 1.55 12.04 4.65 15.7 3.1 3.67 7.22 5.5 12.36 5.5M1063.31 44.27c-1.89 0-3.36-.51-4.42-1.53q-1.59-1.53-1.59-4.14c0-2.61.53-3.19 1.59-4.14 1.06-.94 2.53-1.42 4.42-1.42s3.46.47 4.48 1.42 1.53 2.32 1.53 4.14-.51 3.12-1.53 4.14-2.51 1.53-4.48 1.53m0 68.94c-1.51 0-2.65-.44-3.4-1.3-.76-.87-1.13-2.1-1.13-3.68V61.85c0-1.59.38-2.8 1.13-3.63s1.89-1.25 3.4-1.25 2.57.42 3.4 1.25 1.25 2.04 1.25 3.63v46.38c0 1.59-.4 2.82-1.19 3.68-.79.87-1.95 1.3-3.46 1.3M1121.25 113.67c-5.82 0-10.83-1.15-15.02-3.46-4.2-2.31-7.45-5.57-9.75-9.81-2.31-4.23-3.46-9.3-3.46-15.19s1.13-10.75 3.4-15.02 5.39-7.61 9.35-10.04c3.97-2.42 8.56-3.63 13.78-3.63 3.7 0 7.03.62 9.98 1.87s5.46 3.04 7.54 5.39c2.08 2.34 3.67 5.18 4.76 8.5 1.09 3.33 1.64 7.07 1.64 11.22q0 1.815-1.02 2.67c-.68.57-1.66.85-2.95.85h-39.46v-6.01h37.3l-1.81 1.47c0-4.08-.61-7.54-1.81-10.38-1.21-2.83-2.97-5.01-5.27-6.52-2.31-1.51-5.2-2.27-8.67-2.27q-5.775 0-9.81 2.67c-2.68 1.78-4.71 4.23-6.07 7.37s-2.04 6.79-2.04 10.94v.68c0 6.96 1.68 12.25 5.05 15.87 3.36 3.63 8.14 5.44 14.34 5.44q3.855 0 7.65-1.02c2.53-.68 5.01-1.81 7.43-3.4 1.06-.68 2.02-1 2.89-.96s1.57.3 2.1.79.89 1.1 1.08 1.81c.19.72.11 1.49-.23 2.33-.34.83-1 1.55-1.98 2.15-2.49 1.81-5.44 3.21-8.84 4.2s-6.77 1.47-10.09 1.47ZM643.97 358.34c-7.71 0-13.63-2.17-17.78-6.5s-6.21-10.36-6.21-18.06V173.37c0-7.7 2.21-13.73 6.65-18.06 4.43-4.33 10.59-6.5 18.5-6.5 6.94 0 12.38 1.35 16.33 4.05s7.56 7.13 10.84 13.29l61.85 111.57h-9.83l61.85-111.57q5.205-9.24 11.13-13.29t15.75-4.05c7.9 0 13.92 2.17 18.06 6.5q6.21 6.51 6.21 18.06v160.41c0 7.71-2.02 13.73-6.07 18.06-4.05 4.34-10.02 6.5-17.92 6.5s-13.63-2.17-17.78-6.5c-4.14-4.33-6.21-10.36-6.21-18.06v-99.43h6.07l-46.82 80.93c-2.51 4.24-5.25 7.42-8.24 9.54s-6.99 3.18-11.99 3.18-8.81-1.06-11.99-3.18-6.03-5.3-8.53-9.54l-46.82-81.22h6.94v99.71c0 7.71-2.02 13.73-6.07 18.06-4.05 4.34-10.02 6.5-17.92 6.5ZM965.94 358.92c-20.62 0-38.69-4.43-54.19-13.3-15.51-8.86-27.65-21.19-36.42-37-8.77-15.8-13.15-34.2-13.15-55.2 0-15.99 2.46-30.39 7.37-43.21 4.91-12.81 11.99-23.79 21.24-32.95 9.25-9.15 20.23-16.28 32.95-21.39 12.72-5.1 26.78-7.66 42.2-7.66 20.62 0 38.73 4.39 54.34 13.15 15.61 8.77 27.7 21 36.27 36.71s12.86 34.16 12.86 55.35c0 15.8-2.46 30.16-7.37 43.07s-11.95 23.99-21.1 33.24-20.09 16.43-32.8 21.53c-12.72 5.1-26.79 7.66-42.2 7.66m0-44.8q15.315 0 26.01-7.23c7.13-4.81 12.62-11.75 16.47-20.81 3.85-9.05 5.78-19.94 5.78-32.66q0-28.32-12.72-44.37c-8.48-10.69-20.33-16.04-35.55-16.04-10.02 0-18.64 2.36-25.87 7.08s-12.82 11.61-16.76 20.67c-3.95 9.06-5.93 19.94-5.93 32.66 0 19.08 4.34 33.96 13.01 44.66 8.67 10.69 20.52 16.04 35.55 16.04ZM1169.71 358.92c-7.9 0-16-.58-24.28-1.73-8.29-1.16-16.23-2.79-23.84-4.91-7.62-2.12-14.41-4.62-20.38-7.51-5.2-2.5-8.87-5.88-10.98-10.12-2.12-4.24-2.89-8.62-2.31-13.15s2.21-8.57 4.91-12.14c2.7-3.56 6.26-5.97 10.7-7.23 4.43-1.25 9.44-.62 15.03 1.88 7.32 3.47 15.61 6.21 24.86 8.24 9.25 2.02 18.02 3.04 26.3 3.04 12.52 0 21.34-1.78 26.45-5.35 5.1-3.56 7.66-7.75 7.66-12.57 0-4.43-1.78-7.99-5.35-10.69s-9.88-5.01-18.93-6.94l-33.82-7.23c-18.69-4.05-32.52-10.84-41.47-20.38q-13.44-14.31-13.44-37.14c0-10.21 2.12-19.37 6.36-27.46s10.12-15.03 17.63-20.81c7.52-5.78 16.57-10.31 27.17-13.58s22.26-4.91 34.97-4.91c10.02 0 20.18 1.16 30.49 3.47 10.3 2.31 19.22 5.69 26.73 10.12 4.43 2.31 7.66 5.54 9.68 9.68q3.03 6.225 2.31 12.57c-.48 4.24-2.02 8-4.62 11.27-2.6 3.28-6.07 5.45-10.41 6.5-4.33 1.06-9.49.34-15.46-2.17-5.78-2.5-12.14-4.43-19.08-5.78s-13.68-2.02-20.23-2.02c-7.13 0-13.2.87-18.21 2.6s-8.82 4.15-11.42 7.23-3.9 6.65-3.9 10.69 1.73 7.47 5.2 10.26 9.63 5.06 18.5 6.79l33.53 7.23c18.69 4.05 32.66 10.74 41.91 20.09s13.87 21.44 13.87 36.27c0 10.02-2.02 19.03-6.07 27.02-4.04 8-9.88 14.93-17.49 20.81s-16.67 10.36-27.17 13.44-22.3 4.62-35.41 4.62ZM1281.85 358.34c-5.97 0-10.98-1.45-15.03-4.34s-6.55-6.79-7.52-11.71c-.96-4.91-.1-10.45 2.6-16.62l71.97-154.92q5.205-11.265 12.72-16.62c5.01-3.56 10.88-5.35 17.63-5.35s12.29 1.78 17.2 5.35 9.1 9.1 12.57 16.62l72.26 154.92c2.89 6.17 3.9 11.76 3.04 16.76-.87 5.01-3.23 8.92-7.08 11.71-3.86 2.79-8.77 4.19-14.74 4.19q-10.995 0-17.34-5.49c-4.24-3.66-8-9.34-11.27-17.05l-15.61-36.42 20.52 15.03H1304.4l20.23-15.03-15.61 36.42c-3.28 7.9-6.75 13.63-10.41 17.2-3.66 3.56-9.25 5.35-16.76 5.35m81.79-151.17-33.53 80.06-8.09-13.87h84.11l-8.38 13.87-33.53-80.06zM1512.49 358.34c-8.67 0-15.32-2.41-19.94-7.23-4.62-4.81-6.94-11.56-6.94-20.23V176.25c0-8.67 2.31-15.41 6.94-20.23 4.62-4.81 11.27-7.23 19.94-7.23s14.74 2.41 19.37 7.23c4.62 4.82 6.94 11.56 6.94 20.23v154.63c0 8.67-2.27 15.42-6.79 20.23-4.53 4.81-11.03 7.23-19.51 7.23ZM1671.74 358.92c-22.54 0-41.91-4.38-58.09-13.15-16.19-8.77-28.66-21-37.43-36.71-8.77-15.7-13.15-34.25-13.15-55.64 0-15.99 2.46-30.39 7.37-43.21 4.91-12.81 12.09-23.79 21.53-32.95 9.44-9.15 20.86-16.28 34.25-21.39 13.39-5.1 28.56-7.66 45.52-7.66 8.67 0 17.78 1.06 27.31 3.18 9.54 2.12 17.96 5.11 25.29 8.96 5.59 2.89 9.39 6.6 11.42 11.13 2.02 4.53 2.7 9.15 2.02 13.87s-2.36 8.87-5.06 12.43c-2.7 3.57-6.17 6.02-10.41 7.37s-8.96.68-14.16-2.02c-5.59-2.89-11.27-4.96-17.05-6.21s-11.76-1.88-17.92-1.88c-11.76 0-21.63 2.27-29.62 6.79q-12 6.795-18.06 19.65c-4.05 8.58-6.07 19.22-6.07 31.94s2.02 23.41 6.07 32.08 10.07 15.27 18.06 19.8 17.87 6.79 29.62 6.79c5.39 0 10.93-.58 16.62-1.73 5.68-1.16 11.32-3.08 16.91-5.78 5.59-2.5 10.7-3.22 15.32-2.17 4.62 1.06 8.33 3.37 11.13 6.94 2.79 3.57 4.57 7.61 5.35 12.14.77 4.53.14 9.01-1.88 13.44-2.02 4.44-5.54 8-10.55 10.69-6.75 4.05-15.08 7.28-25 9.68-9.93 2.41-19.71 3.61-29.34 3.61Z" class="cls-2"/></svg>